<svg width="123" height="123" viewBox="0 0 123 123" fill="none" xmlns="http://www.w3.org/2000/svg">
<path d="M34.7321 34.9941L96.6045 63.0063C90.2928 65.938 73.7799 73.5571 73.7799 73.5571C73.7799 73.5571 66.0616 89.8373 63.0903 96.063L34.7321 34.9941Z" fill="#00A6ED"/>
<path opacity="0.2" fill-rule="evenodd" clip-rule="evenodd" d="M19.2075 15.375H44.7646V19.2075H19.2075V44.3523L15.375 44.3523V19.2075V15.375H19.2075ZM15.375 77.4154H19.2075V103.793H44.7646V107.625H19.2075H15.375V103.793V77.4154ZM77.8277 107.625H103.793H107.625V103.793V77.4154H103.793V103.793H77.8277V107.625ZM103.793 44.3523V19.2075H77.8277V15.375H103.793H107.625V19.2075V44.3523L103.793 44.3523Z" fill="#00A6ED"/>
</svg>
