<svg width="123" height="123" viewBox="0 0 123 123" fill="none" xmlns="http://www.w3.org/2000/svg">
<path opacity="0.2" fill-rule="evenodd" clip-rule="evenodd" d="M19.2075 15.375H44.7646V19.2075H19.2075V44.3523L15.375 44.3523V19.2075V15.375H19.2075ZM15.375 77.4154H19.2075V103.793H44.7646V107.625H19.2075H15.375V103.793V77.4154ZM77.8277 107.625H103.793H107.625V103.793V77.4154H103.793V103.793H77.8277V107.625ZM103.793 44.3523V19.2075H77.8277V15.375H103.793H107.625V19.2075V44.3523L103.793 44.3523Z" fill="#00A6ED"/>
<path d="M87.7503 74.4153V82.2903C87.7532 83.0213 87.6035 83.745 87.3106 84.4148C87.0177 85.0846 86.5882 85.6859 86.0495 86.1802C85.5107 86.6744 84.8748 87.0507 84.1822 87.2849C83.4897 87.5191 82.7559 87.6061 82.0278 87.5403C73.9502 86.6626 66.1911 83.9024 59.374 79.4815C53.0315 75.4513 47.6543 70.074 43.624 63.7315C39.1877 56.8834 36.4269 49.0866 35.5653 40.9728C35.4997 40.2469 35.5859 39.5153 35.8186 38.8245C36.0512 38.1338 36.4251 37.4991 36.9165 36.9608C37.4079 36.4225 38.006 35.9924 38.6727 35.6979C39.3394 35.4034 40.0601 35.2509 40.789 35.2503H48.664C49.9379 35.2377 51.173 35.6888 52.1389 36.5195C53.1048 37.3502 53.7357 38.5038 53.914 39.7653C54.2464 42.2854 54.8628 44.7599 55.7515 47.1415C56.1047 48.0811 56.1811 49.1022 55.9718 50.0838C55.7624 51.0655 55.276 51.9665 54.5703 52.6803L51.2365 56.014C54.9733 62.5858 60.4147 68.0272 66.9865 71.764L70.3203 68.4303C71.034 67.7245 71.935 67.2381 72.9167 67.0288C73.8983 66.8194 74.9194 66.8958 75.859 67.249C78.2406 68.1377 80.7151 68.7541 83.2353 69.0865C84.5104 69.2664 85.6749 69.9087 86.5074 70.8912C87.3399 71.8737 87.7822 73.1279 87.7503 74.4153Z" fill="#00A6ED"/>
</svg>
