<svg width="123" height="123" viewBox="0 0 123 123" fill="none" xmlns="http://www.w3.org/2000/svg">
<path opacity="0.2" fill-rule="evenodd" clip-rule="evenodd" d="M19.2075 15.375H44.7646V19.2075H19.2075V44.3523L15.375 44.3523V19.2075V15.375H19.2075ZM15.375 77.4154H19.2075V103.793H44.7646V107.625H19.2075H15.375V103.793V77.4154ZM77.8277 107.625H103.793H107.625V103.793V77.4154H103.793V103.793H77.8277V107.625ZM103.793 44.3523V19.2075H77.8277V15.375H103.793H107.625V19.2075V44.3523L103.793 44.3523Z" fill="#00A6ED"/>
<path d="M32.625 54.2046C32.625 51.7644 35.3831 50.3451 37.3687 51.7634L47.5823 59.0588C49.2574 60.2553 49.2574 62.7447 47.5823 63.9412L37.3687 71.2366C35.3831 72.6549 32.625 71.2355 32.625 68.7954V54.2046Z" fill="#00A6ED"/>
<path d="M56.25 43.125H85.125C88.0245 43.125 90.375 45.4755 90.375 48.375V74.625C90.375 77.5245 88.0245 79.875 85.125 79.875H56.25C53.3505 79.875 51 77.5245 51 74.625V48.375C51 45.4755 53.3505 43.125 56.25 43.125Z" fill="#00A6ED"/>
</svg>
