<svg width="123" height="123" viewBox="0 0 123 123" fill="none" xmlns="http://www.w3.org/2000/svg">
<path fill-rule="evenodd" clip-rule="evenodd" d="M19.2075 15.375H44.7646V19.2075H19.2075V44.3523L15.375 44.3523V19.2075V15.375H19.2075ZM15.375 77.4154H19.2075V103.793H44.7646V107.625H19.2075H15.375V103.793V77.4154ZM77.8277 107.625H103.793H107.625V103.793V77.4154H103.793V103.793H77.8277V107.625ZM103.793 44.3523V19.2075H77.8277V15.375H103.793H107.625V19.2075V44.3523L103.793 44.3523Z" fill="#00A6ED"/>
<path d="M26.9471 67.9536L48.9462 77.6406V71.3128L34.0874 65.3443V65.0631L48.9462 59.0946V52.7667L26.9471 62.4538V67.9536ZM69.4921 44.5014H63.758L53.446 82.8123H59.1801L69.4921 44.5014ZM95.9949 67.9536V62.4538L73.9959 52.7667V59.0946L88.8546 65.0631V65.3443L73.9959 71.3128V77.6406L95.9949 67.9536Z" fill="#00A6ED"/>
</svg>
