<svg width="149" height="276" viewBox="0 0 149 276" fill="none" xmlns="http://www.w3.org/2000/svg">
<g filter="url(#filter0_d)">
<path d="M73.728 172.006C61.0103 172.347 50.2072 186.599 50.4807 196.692C50.7542 206.852 75.6424 245.176 75.6424 245.176C82.685 227.583 98.5479 205.42 98.2744 195.464C97.9325 185.508 86.3772 171.665 73.728 172.006Z" fill="#0088CF"/>
<path d="M73.7294 172.755C63.3364 173.028 54.5162 184.688 54.7213 192.94C54.9264 201.259 75.2336 232.559 75.2336 232.559C80.9771 218.239 93.9682 200.1 93.7631 191.917C93.5579 183.802 84.0539 172.482 73.7294 172.755Z" fill="#00A6ED"/>
<path d="M73.7284 172.621C65.7286 172.825 58.8912 181.827 59.0963 188.169C59.233 194.579 74.8908 218.719 74.8908 218.719C81.0576 208.001 89.3178 193.692 89.1127 187.418C88.9759 181.145 81.7282 172.416 73.7284 172.621Z" fill="white"/>
<path d="M53.9781 137.066C53.9781 137.066 43.0081 143.325 37.5949 154.361C30.7446 168.408 28.9243 189.907 31.6069 191.292C34.2895 192.678 37.4991 182.31 42.9122 176.243C51.8224 166.21 59.487 166.831 59.487 166.831L53.9781 137.066Z" fill="#00A6ED"/>
<path d="M95.3195 137.066C95.3195 137.066 106.29 143.325 111.703 154.361C118.553 168.408 120.373 189.907 117.691 191.292C115.008 192.678 111.798 182.31 106.385 176.243C97.4752 166.21 89.8105 166.831 89.8105 166.831L95.3195 137.066Z" fill="#0088CF"/>
<path d="M90.7203 184.269C91.9658 180.494 100.205 153.74 100.205 120.535C100.205 93.0639 84.3011 77.4888 74.6724 69.7969C65.0438 77.4888 49.1396 93.0639 49.1396 120.535C49.1396 153.74 57.3791 180.447 58.6246 184.269H90.7203Z" fill="#2C2D38"/>
<path d="M42.3369 105.488C42.3369 147.531 52.78 172.47 54.3129 177.296H94.9354C96.4683 172.47 106.911 147.531 106.911 105.488C106.911 86.9509 101.211 69.5125 94.0252 55.8008H55.2231C48.0375 69.5125 42.3369 86.9509 42.3369 105.488Z" fill="white"/>
<path d="M74.6726 30C68.972 34.5387 61.5469 43.7118 55.2715 55.7514H94.0737C87.7503 43.7595 80.3252 34.5387 74.6726 30Z" fill="#00A6ED"/>
<path opacity="0.3" d="M94.0739 55.75H74.6729V177.245H94.9841C96.517 172.419 106.96 147.48 106.96 105.437C106.96 86.9478 101.26 69.5095 94.0739 55.75Z" fill="#B9E3F4"/>
<path d="M74.6725 73.9531C67.0078 73.9531 60.7324 80.164 60.7324 87.856C60.7324 95.5002 66.9599 101.759 74.6725 101.759C82.3371 101.759 88.6125 95.548 88.6125 87.856C88.5646 80.164 82.3371 73.9531 74.6725 73.9531Z" fill="#A5D5E7"/>
<path d="M88.9955 96.0264C93.4984 88.0956 90.72 78.0626 82.768 73.5716C74.8159 69.0806 64.7561 71.8516 60.2531 79.7825C55.7502 87.7133 58.5286 97.7463 66.4806 102.237C74.4327 106.728 84.5404 103.957 88.9955 96.0264ZM85.8338 94.2587C82.3368 100.422 74.4806 102.572 68.301 99.0841C62.1214 95.5964 59.9657 87.7611 63.4627 81.598C66.9597 75.4349 74.8159 73.2849 80.9955 76.7726C87.1751 80.2603 89.3308 88.0956 85.8338 94.2587Z" fill="#0088CF"/>
<path opacity="0.3" d="M86.8873 94.8314C90.7196 88.0949 88.3244 79.543 81.57 75.7209C74.8155 71.8988 66.2407 74.2876 62.4084 81.0241C58.5761 87.7605 60.9713 96.3124 67.7257 100.135C74.4802 103.909 83.055 101.568 86.8873 94.8314Z" fill="#00A6ED"/>
<path d="M63.7986 91.8238C62.2656 87.2373 63.7986 81.9819 67.9662 78.972C72.1339 75.9621 77.5949 76.1532 81.523 79.0675C81.523 79.0675 74.8644 81.743 71.3674 84.2751C67.7746 86.8551 63.7986 91.8238 63.7986 91.8238Z" fill="white"/>
<path d="M74.7208 141.988C71.9424 141.988 70.1221 146.24 70.1221 151.926C70.1221 157.611 70.7448 191.389 74.6729 191.389C78.649 191.389 79.2238 157.611 79.2238 151.926C79.3196 146.24 77.4993 141.988 74.7208 141.988Z" fill="#00A6ED"/>
<path d="M74.6729 55.7514H94.0739C87.7985 43.7118 80.3734 34.5387 74.6729 30V55.7514Z" fill="#0088CF"/>
<path d="M74.7207 141.988V191.389C78.6967 191.389 79.2716 157.611 79.2716 151.926C79.3195 146.24 77.4991 141.988 74.7207 141.988Z" fill="#0088CF"/>
</g>
<defs>
<filter id="filter0_d" x="0.421875" y="0" width="148.454" height="275.176" filterUnits="userSpaceOnUse" color-interpolation-filters="sRGB">
<feFlood flood-opacity="0" result="BackgroundImageFix"/>
<feColorMatrix in="SourceAlpha" type="matrix" values="0 0 0 0 0 0 0 0 0 0 0 0 0 0 0 0 0 0 127 0"/>
<feOffset/>
<feGaussianBlur stdDeviation="15"/>
<feColorMatrix type="matrix" values="0 0 0 0 1 0 0 0 0 1 0 0 0 0 1 0 0 0 1 0"/>
<feBlend mode="normal" in2="BackgroundImageFix" result="effect1_dropShadow"/>
<feBlend mode="normal" in="SourceGraphic" in2="effect1_dropShadow" result="shape"/>
</filter>
</defs>
</svg>
