<svg width="24" height="24" viewBox="0 0 24 24" fill="none" xmlns="http://www.w3.org/2000/svg">
<g opacity="0.6">
<path d="M12.0217 0.0898438C5.40745 0.0898438 0.0439453 5.5438 0.0439453 12.2721C0.0439453 17.6547 3.47595 22.2212 8.23509 23.832C8.8337 23.9448 9.05347 23.5678 9.05347 23.246C9.05347 22.9555 9.04236 21.9958 9.0372 20.9779C5.70497 21.7148 5.00183 19.5405 5.00183 19.5405C4.45697 18.1324 3.67191 17.7579 3.67191 17.7579C2.58517 17.0018 3.75383 17.0174 3.75383 17.0174C4.95661 17.1031 5.58993 18.2728 5.58993 18.2728C6.65823 20.1352 8.39198 19.5968 9.07548 19.2855C9.18299 18.4983 9.4934 17.9605 9.83595 17.6565C7.17552 17.3484 4.37882 16.3038 4.37882 11.6358C4.37882 10.3058 4.84672 9.21903 5.61294 8.36589C5.48857 8.05885 5.07859 6.81998 5.72897 5.14194C5.72897 5.14194 6.73479 4.81452 9.02372 6.39069C9.97915 6.12076 11.0038 5.9854 12.0217 5.98076C13.0396 5.9854 14.0651 6.12076 15.0223 6.39069C17.3085 4.81452 18.3129 5.14194 18.3129 5.14194C18.9649 6.81998 18.5547 8.05885 18.4303 8.36589C19.1983 9.21903 19.6631 10.3058 19.6631 11.6358C19.6631 16.3149 16.861 17.3452 14.1938 17.6468C14.6235 18.0248 15.0063 18.7662 15.0063 19.9028C15.0063 21.5326 14.9924 22.8445 14.9924 23.246C14.9924 23.5702 15.208 23.9501 15.8151 23.8304C20.5717 22.2177 23.9993 17.6528 23.9993 12.2721C23.9993 5.5438 18.6366 0.0898438 12.0217 0.0898438Z" fill="white"/>
</g>
</svg>
