<svg width="24" height="24" viewBox="0 0 24 24" fill="none" xmlns="http://www.w3.org/2000/svg">
<g opacity="0.6">
<path d="M0 12C0 5.37258 5.37258 0 12 0C18.6274 0 24 5.37258 24 12C24 18.6274 18.6274 24 12 24C5.37258 24 0 18.6274 0 12Z" fill="white"/>
<mask id="mask0" mask-type="alpha" maskUnits="userSpaceOnUse" x="4" y="4" width="16" height="16">
<path d="M15.1364 18.3779C15.9892 18.3779 16.7942 18.0516 17.403 17.459C18.0118 16.8664 18.3471 16.0829 18.3471 15.2529V8.74741C18.3471 7.91736 18.0118 7.13389 17.403 6.54129C16.7942 5.94869 15.9892 5.62234 15.1364 5.62234H8.86388C8.01107 5.62234 7.20611 5.94869 6.59726 6.54129C5.98842 7.13389 5.65312 7.91736 5.65312 8.74741V15.2529C5.65312 16.0829 5.98842 16.8664 6.59726 17.459C7.20611 18.0516 8.01107 18.3779 8.86388 18.3779H15.1364ZM15.1364 19.5003H8.86388C6.46374 19.5003 4.5 17.589 4.5 15.2529V8.74741C4.5 6.41133 6.46374 4.5 8.86388 4.5H15.1364C17.5366 4.5 19.5003 6.41133 19.5003 8.74741V15.2529C19.5003 17.589 17.5366 19.5003 15.1364 19.5003Z" fill="#FEFCFC"/>
<path d="M12.0034 9.31284C10.5096 9.31284 9.29868 10.4915 9.29868 11.9454C9.29868 13.3994 10.5096 14.578 12.0034 14.578C13.4973 14.578 14.7082 13.3994 14.7082 11.9454C14.7082 10.4915 13.4973 9.31284 12.0034 9.31284Z" fill="#FEFCFC"/>
<path fill-rule="evenodd" clip-rule="evenodd" d="M15.1364 18.3779C15.9892 18.3779 16.7942 18.0516 17.403 17.459C18.0118 16.8664 18.3471 16.0829 18.3471 15.2529V8.74741C18.3471 7.91736 18.0118 7.13389 17.403 6.54129C16.7942 5.94869 15.9892 5.62234 15.1364 5.62234H8.86388C8.01107 5.62234 7.20611 5.94869 6.59726 6.54129C5.98842 7.13389 5.65312 7.91736 5.65312 8.74741V15.2529C5.65312 16.0829 5.98842 16.8664 6.59726 17.459C7.20611 18.0516 8.01107 18.3779 8.86388 18.3779H15.1364ZM12.0233 15.9626C14.3046 15.9626 16.1539 14.1626 16.1539 11.9423C16.1539 9.72185 14.3046 7.92187 12.0233 7.92187C9.74206 7.92187 7.89272 9.72185 7.89272 11.9423C7.89272 14.1626 9.74206 15.9626 12.0233 15.9626ZM16.2202 8.81131C16.7604 8.81131 17.1983 8.38508 17.1983 7.85934C17.1983 7.3336 16.7604 6.90737 16.2202 6.90737C15.6801 6.90737 15.2422 7.3336 15.2422 7.85934C15.2422 8.38508 15.6801 8.81131 16.2202 8.81131Z" fill="#FEFCFC"/>
</mask>
<g mask="url(#mask0)">
<rect x="-4.7998" y="-3.12109" width="34.44" height="30.24" fill="#051923"/>
</g>
</g>
</svg>
