<svg width="24" height="24" viewBox="0 0 24 24" fill="none" xmlns="http://www.w3.org/2000/svg">
<circle cx="12" cy="12" r="12" fill="white"/>
<path d="M14.8356 12.0016C14.8356 10.4266 13.5756 9.16656 12.0006 9.16656C10.4256 9.16656 9.16559 10.4266 9.16559 12.0016C9.16559 13.5766 10.4256 14.8366 12.0006 14.8366C13.5756 14.8366 14.8356 13.5766 14.8356 12.0016ZM16.3056 12.0016C16.3056 14.4166 14.4156 16.3066 12.0006 16.3066C9.58559 16.3066 7.69559 14.4166 7.69559 12.0016C7.69559 9.58656 9.58559 7.69656 12.0006 7.69656C14.4156 7.69656 16.3056 9.58656 16.3056 12.0016ZM17.4606 7.48656C17.4606 8.11656 17.0406 8.53656 16.4106 8.53656C15.7806 8.53656 15.3606 8.11656 15.3606 7.48656C15.3606 6.85656 15.7806 6.43656 16.4106 6.43656C17.0406 6.43656 17.4606 6.96156 17.4606 7.48656ZM12.0006 5.07156C10.7406 5.07156 8.11559 4.96656 7.06559 5.38656C6.33059 5.70156 5.70059 6.33156 5.49059 7.06656C5.07059 8.11656 5.17559 10.7416 5.17559 12.0016C5.17559 13.2616 5.07059 15.8866 5.49059 16.9366C5.70059 17.6716 6.33059 18.3016 7.06559 18.5116C8.11559 18.9316 10.8456 18.8266 12.0006 18.8266C13.1556 18.8266 15.8856 18.9316 16.9356 18.5116C17.6706 18.1966 18.1956 17.6716 18.5106 16.9366C18.9306 15.7816 18.8256 13.1566 18.8256 12.0016C18.8256 10.8466 18.9306 8.11656 18.5106 7.06656C18.3006 6.33156 17.6706 5.70156 16.9356 5.49156C15.8856 4.96656 13.2606 5.07156 12.0006 5.07156ZM20.4006 12.0016V15.4666C20.4006 16.7266 19.9806 17.9866 19.0356 19.0366C18.0906 19.9816 16.8306 20.4016 15.4656 20.4016H8.53559C7.27559 20.4016 6.01559 19.9816 4.96559 19.0366C4.12559 18.0916 3.60059 16.8316 3.60059 15.4666V12.0016V8.53656C3.60059 7.17156 4.12559 5.91156 4.96559 4.96656C6.01559 4.12656 7.27559 3.60156 8.53559 3.60156H15.4656C16.7256 3.60156 17.9856 4.02156 19.0356 4.96656C19.8756 5.91156 20.4006 7.17156 20.4006 8.53656V12.0016Z" fill="black"/>
</svg>
