<svg width="24" height="25" viewBox="0 0 24 25" fill="none" xmlns="http://www.w3.org/2000/svg">
<circle cx="12" cy="12" r="12" fill="white"/>
<g clip-path="url(#clip0)">
<path d="M19.8103 2.125L12.6395 6.85271L13.2424 5.64696C9.83676 4.38836 3.35144 7.7512 3.21813 13.0829C2.95344 23.6696 12.7982 22.6856 14.1943 22.2732C10.666 20.9532 11.0742 16.9003 11.7194 15.0389C14.8606 16.1177 16.3518 17.0061 18.1604 15.3244C19.6073 13.9791 16.3095 10.4698 14.4798 8.88336L19.8103 2.125Z" fill="black"/>
<path d="M11.7194 15.0389C14.8606 16.1177 16.3518 17.0061 18.1604 15.3244C19.6073 13.9791 16.3095 10.4698 14.4798 8.88336L19.8103 2.125L12.6395 6.85271L13.2424 5.64696C9.83676 4.38836 3.35144 7.7512 3.21813 13.0829C2.95344 23.6696 12.7982 22.6856 14.1943 22.2732C10.666 20.9532 11.0742 16.9003 11.7194 15.0389ZM11.7194 15.0389C8.57815 13.9601 7.91183 10.9458 8.70507 10.0891" stroke="white" stroke-width="0.598209"/>
<path fill-rule="evenodd" clip-rule="evenodd" d="M13.0647 10.7267C13.0975 10.6252 13.1152 10.5169 13.1152 10.4045C13.1152 9.82621 12.6464 9.35742 12.0682 9.35742C11.558 9.35742 11.1331 9.72221 11.04 10.2052C11.4035 10.1274 11.8605 10.1616 12.3212 10.3258C12.6062 10.4273 12.8586 10.5666 13.0647 10.7267Z" fill="white"/>
</g>
<defs>
<clipPath id="clip0">
<rect width="16.5" height="21" fill="white" transform="translate(3.21289 3.51953)"/>
</clipPath>
</defs>
</svg>
