<svg width="24" height="24" viewBox="0 0 24 24" fill="none" xmlns="http://www.w3.org/2000/svg">
<g opacity="0.6">
<path d="M0 12C0 5.37258 5.37258 0 12 0C18.6274 0 24 5.37258 24 12C24 18.6274 18.6274 24 12 24C5.37258 24 0 18.6274 0 12Z" fill="white"/>
<mask id="mask0" mask-type="alpha" maskUnits="userSpaceOnUse" x="4" y="6" width="18" height="14">
<path fill-rule="evenodd" clip-rule="evenodd" d="M21.5998 7.57243C21.0205 7.82071 20.3584 7.98621 19.6136 8.06897C20.2757 7.65517 20.855 6.99309 21.1033 6.24827C20.4412 6.66206 19.6964 6.91033 18.9515 7.07585C18.3722 6.41378 17.4619 6 16.4688 6C14.5653 6 13.0757 7.48966 13.0757 9.31034C13.0757 9.55862 13.0757 9.80692 13.1584 10.0552C10.3446 9.88967 7.86187 8.56553 6.12394 6.57932C5.79291 7.07587 5.62739 7.65518 5.62739 8.23449C5.62739 9.39311 6.2067 10.3862 7.11704 11.0483C6.53773 11.0483 6.04118 10.8827 5.54463 10.6345C5.54463 10.6345 5.54463 10.6345 5.54463 10.7173C5.54463 12.3724 6.70325 13.6966 8.27567 14.0276C8.02739 14.1104 7.69636 14.1103 7.36532 14.1103C7.11705 14.1103 6.95153 14.1104 6.70325 14.0276C7.11704 15.3517 8.35843 16.3448 9.84808 16.3448C8.68946 17.2552 7.19981 17.7517 5.62739 17.7517C5.37912 17.7517 5.04808 17.7517 4.79981 17.6689C6.28946 18.662 8.11015 19.1586 10.0136 19.1586C16.2205 19.1586 19.6964 14.0276 19.6964 9.6414C19.6964 9.47588 19.6964 9.31036 19.6964 9.22761C20.6067 8.81381 21.186 8.2345 21.5998 7.57243Z" fill="#FEFCFC"/>
</mask>
<g mask="url(#mask0)">
<rect x="-3.60059" y="-3.23828" width="34.44" height="30.24" fill="#051923"/>
</g>
</g>
</svg>
