<svg width="40" height="40" viewBox="0 0 40 40" fill="none" xmlns="http://www.w3.org/2000/svg">
<path d="M30.7371 21.0329C29.6402 21.0143 28.5506 21.2143 27.5318 21.6212C26.513 22.0281 25.5854 22.6338 24.8031 23.4029C24.0208 24.172 23.3995 25.0892 22.9754 26.101C22.5513 27.1127 22.3328 28.1988 22.3328 29.2959C22.3328 30.3929 22.5513 31.479 22.9754 32.4908C23.3995 33.5025 24.0208 34.4197 24.8031 35.1888C25.5854 35.958 26.513 36.5637 27.5318 36.9706C28.5506 37.3775 29.6402 37.5775 30.7371 37.5589C32.9286 37.5589 35.0303 36.6883 36.5799 35.1387C38.1295 33.5891 39.0001 31.4873 39.0001 29.2959C39.0001 27.1044 38.1295 25.0027 36.5799 23.453C35.0303 21.9034 32.9286 21.0329 30.7371 21.0329ZM9.27061 21.0329C7.10338 21.0696 5.03733 21.9563 3.5177 23.5019C1.99806 25.0475 1.14648 27.1283 1.14648 29.2959C1.14648 31.4634 1.99806 33.5442 3.5177 35.0898C5.03733 36.6354 7.10338 37.5221 9.27061 37.5589C11.4627 37.5579 13.5648 36.6867 15.1149 35.1366C16.665 33.5865 17.5362 31.4844 17.5372 29.2923C17.5359 27.1009 16.6643 24.9997 15.1141 23.4509C13.5639 21.902 11.462 21.0322 9.27061 21.0329ZM28.2633 10.708C28.2633 12.8985 27.3931 14.9993 25.8441 16.5483C24.2952 18.0972 22.1944 18.9674 20.0038 18.9674C17.8133 18.9674 15.7125 18.0972 14.1635 16.5483C12.6146 14.9993 11.7444 12.8985 11.7444 10.708C11.7444 6.14498 15.442 2.44141 20.0038 2.44141C24.5656 2.44141 28.2633 6.14498 28.2633 10.708Z" fill="white"/>
</svg>
