<svg width="303" height="499" viewBox="0 0 303 499" fill="none" xmlns="http://www.w3.org/2000/svg">
<ellipse opacity="0.3" cx="151" cy="466.239" rx="151" ry="32.7585" fill="url(#paint0_radial)"/>
<g clip-path="url(#clip0)">
<g clip-path="url(#clip1)">
<path d="M129.502 463.686C127.108 469.065 104.37 478.581 74.0619 476.574C43.1462 474.532 21.0423 438.123 59.1939 421.943C63.1815 405.332 65.5495 387.718 66.8259 370.244C56.0248 368.237 47.8382 358.765 47.8382 347.374L47.8382 285.394L50.5671 219.803C54.4756 212.462 62.2133 207.471 71.1041 207.471L241.695 207.471C254.538 207.471 264.952 217.884 264.952 230.728L264.952 234.707C281.369 244.055 298.746 259.821 299.283 284.786C299.987 317.216 278.649 337.603 264.952 347.313L264.952 347.374C264.952 358.66 256.915 368.07 246.254 370.191C247.408 394.153 249.485 414.118 252.478 421.248C254.881 421.847 270.788 430.878 270.946 445.711C271.114 461.662 254.335 478.766 226.017 476.275C188.05 472.938 182.469 467.12 180.673 462.674C173.288 444.443 165.462 385.473 165.462 385.473C165.462 385.473 145.981 385.473 145.083 385.772C144.185 386.072 137.742 445.148 129.502 463.686Z" fill="white"/>
<path d="M264.952 234.707C281.369 244.055 298.746 259.821 299.283 284.786C299.987 317.216 278.649 337.603 264.952 347.313L264.952 347.374C264.952 358.66 256.915 368.07 246.254 370.191C247.408 394.153 249.485 414.118 252.478 421.248C254.881 421.847 270.788 430.878 270.946 445.711C271.114 461.662 254.335 478.766 226.017 476.275C188.05 472.938 182.469 467.12 180.673 462.674C173.288 444.443 165.462 385.473 165.462 385.473C165.462 385.473 145.981 385.473 145.083 385.772C144.185 386.072 137.742 445.148 129.502 463.686C127.108 469.065 104.37 478.581 74.0618 476.574C43.1462 474.532 21.0423 438.123 59.1939 421.943C63.1815 405.332 65.5495 387.718 66.8259 370.244C56.0248 368.237 47.8382 358.765 47.8382 347.374L47.8382 285.394L50.5671 219.803C54.4756 212.462 62.2133 207.471 71.1041 207.471L241.695 207.471C254.538 207.471 264.952 217.884 264.952 230.728L264.952 234.707ZM264.952 234.707C253.836 228.999 228.441 217.899 215.784 219.165" stroke="black" stroke-width="5.28171" stroke-miterlimit="10"/>
<path d="M246.957 293.39C248.727 291.981 250.399 290.555 252.063 289.085C253.727 287.615 255.337 286.092 256.904 284.525C258.471 282.958 259.977 281.33 261.376 279.604C262.758 277.879 264.096 276.074 264.95 274.041C263.832 275.934 262.292 277.509 260.734 279.006C259.158 280.493 257.477 281.884 255.751 283.196C254.026 284.516 252.256 285.784 250.452 286.99C248.656 288.196 246.808 289.384 244.977 290.476L246.957 293.39Z" fill="black"/>
<path d="M248.938 371.075C247.935 361.973 247.063 352.809 246.306 343.663C245.549 334.508 244.907 325.344 244.449 316.163C244 306.99 243.701 297.8 243.842 288.618C243.921 284.032 244.106 279.437 244.563 274.877C244.801 272.597 245.109 270.317 245.576 268.073C245.813 266.955 246.086 265.837 246.447 264.754C246.808 263.671 247.231 262.588 247.873 261.629C247.187 262.562 246.711 263.627 246.298 264.692C245.875 265.766 245.549 266.875 245.259 267.993C244.678 270.229 244.264 272.509 243.921 274.789C243.243 279.358 242.829 283.962 242.53 288.566C241.949 297.773 241.808 307.008 241.817 316.224C241.835 325.45 242.046 334.666 242.363 343.883C242.688 353.108 243.111 362.298 243.692 371.541C243.78 372.994 245.039 374.103 246.491 374.015C247.944 373.927 249.053 372.668 248.965 371.216C248.965 371.18 248.956 371.136 248.956 371.101L248.938 371.075Z" fill="black"/>
<path d="M268.048 318.27C269.949 336.096 261.199 353.658 251.226 354.723C241.252 355.788 234.782 345.462 232.889 327.636C230.988 309.811 233.435 293.076 243.409 292.011C253.374 290.955 266.155 300.453 268.048 318.27Z" fill="white" stroke="black" stroke-width="5.28171" stroke-miterlimit="10" stroke-linecap="round" stroke-linejoin="round"/>
</g>
<g clip-path="url(#clip2)">
<path d="M183.462 463.687C185.856 469.065 208.594 478.581 238.902 476.574C269.818 474.532 291.922 438.123 253.77 421.943C249.782 405.332 247.414 387.718 246.138 370.244C256.939 368.237 265.126 358.765 265.126 347.374L265.126 285.394L262.397 219.804C258.488 212.462 250.751 207.471 241.86 207.471L71.2693 207.471C58.4259 207.471 48.0122 217.884 48.0122 230.728L48.0122 234.707C31.5949 244.055 14.218 259.821 13.6811 284.786C12.9768 317.216 34.3149 337.603 48.0122 347.313L48.0122 347.374C48.0122 358.66 56.0492 368.07 66.7094 370.191C65.5562 394.153 63.4788 414.118 60.4858 421.248C58.0826 421.847 42.1759 430.878 42.0174 445.711C41.8502 461.662 58.6284 478.766 86.9472 476.275C124.914 472.938 130.495 467.12 132.291 462.674C139.676 444.443 147.502 385.473 147.502 385.473C147.502 385.473 166.983 385.473 167.881 385.772C168.778 386.072 175.222 445.148 183.462 463.687Z" fill="white"/>
<path d="M48.0122 234.707C31.5949 244.055 14.218 259.821 13.6811 284.786C12.9768 317.216 34.3149 337.603 48.0122 347.313L48.0122 347.374C48.0122 358.66 56.0492 368.07 66.7094 370.191C65.5562 394.153 63.4788 414.118 60.4858 421.248C58.0826 421.847 42.1759 430.878 42.0174 445.711C41.8502 461.662 58.6284 478.766 86.9472 476.275C124.914 472.938 130.495 467.12 132.291 462.674C139.676 444.443 147.502 385.473 147.502 385.473C147.502 385.473 166.983 385.473 167.881 385.772C168.778 386.072 175.222 445.148 183.462 463.687C185.856 469.065 208.594 478.581 238.902 476.574C269.818 474.532 291.922 438.123 253.77 421.943C249.782 405.332 247.414 387.718 246.138 370.244C256.939 368.237 265.126 358.765 265.126 347.374L265.126 285.394L262.397 219.804C258.488 212.462 250.751 207.471 241.86 207.471L71.2693 207.471C58.4259 207.471 48.0122 217.884 48.0122 230.728L48.0122 234.707ZM48.0122 234.707C58.1853 229.131 82.0123 217.267 95.935 214.419" stroke="black" stroke-width="5.28171" stroke-miterlimit="10"/>
<path d="M66.0057 293.39C64.2363 291.981 62.5638 290.555 60.9001 289.085C59.2363 287.615 57.6254 286.092 56.0585 284.525C54.4916 282.958 52.9863 281.33 51.5867 279.604C50.2046 277.879 48.8666 276.074 48.0127 274.041C49.1307 275.934 50.6712 277.509 52.2293 279.006C53.805 280.493 55.4863 281.884 57.2117 283.196C58.937 284.516 60.7064 285.784 62.511 286.99C64.3068 288.196 66.1554 289.384 67.9864 290.476L66.0057 293.39Z" fill="black"/>
<path d="M64.0245 371.075C65.028 361.973 65.8995 352.809 66.6565 343.663C67.4136 334.508 68.0562 325.344 68.5139 316.163C68.9629 306.99 69.2622 297.8 69.1213 288.618C69.0421 284.032 68.8572 279.437 68.3995 274.877C68.1618 272.597 67.8537 270.317 67.3872 268.073C67.1495 266.955 66.8766 265.837 66.5157 264.754C66.1548 263.671 65.7322 262.588 65.0896 261.629C65.7762 262.562 66.2516 263.627 66.6653 264.692C67.0879 265.766 67.4136 266.875 67.7041 267.993C68.285 270.229 68.6988 272.509 69.0421 274.789C69.7199 279.358 70.1336 283.962 70.4329 288.566C71.0139 297.773 71.1548 307.008 71.146 316.224C71.1284 325.45 70.9171 334.666 70.6002 343.883C70.2745 353.108 69.8519 362.298 69.271 371.541C69.1829 372.994 67.9241 374.103 66.4717 374.015C65.0192 373.927 63.91 372.668 63.9981 371.216C63.9981 371.18 64.0069 371.136 64.0069 371.101L64.0245 371.075Z" fill="black"/>
<path d="M44.915 318.27C43.0136 336.096 51.7636 353.658 61.7373 354.723C71.7109 355.788 78.181 345.462 80.0736 327.636C81.975 309.811 79.5278 293.076 69.5542 292.011C59.5894 290.955 46.8076 300.453 44.915 318.27Z" fill="white" stroke="black" stroke-width="5.28171" stroke-miterlimit="10" stroke-linecap="round" stroke-linejoin="round"/>
</g>
</g>
<path d="M212.292 360.667L101.978 360.667C93.0823 360.667 85.8652 353.456 85.8652 344.567L85.8652 301.52C85.8652 292.631 93.0823 285.42 101.978 285.42L212.292 285.42C221.188 285.42 228.405 292.631 228.405 301.52L228.405 344.567C228.405 353.456 221.188 360.667 212.292 360.667Z" fill="white" stroke="black" stroke-width="5.28171" stroke-miterlimit="10" stroke-linecap="round" stroke-linejoin="round"/>
<path d="M211.974 348.687L101.66 348.687C92.764 348.687 85.5469 341.476 85.5469 332.587L85.5469 289.539C85.5469 280.651 92.764 273.439 101.66 273.439L211.974 273.439C220.87 273.439 228.087 280.651 228.087 289.539L228.087 332.587C228.087 341.485 220.87 348.687 211.974 348.687Z" fill="white" stroke="black" stroke-width="5.28171" stroke-miterlimit="10" stroke-linecap="round" stroke-linejoin="round"/>
<path d="M115.302 273.439L115.302 311.068L128.769 311.068L128.769 346.93" stroke="black" stroke-width="5.28171" stroke-miterlimit="10" stroke-linecap="round" stroke-linejoin="round"/>
<path d="M184.435 326.525C192.98 326.525 199.907 319.604 199.907 311.066C199.907 302.529 192.98 295.607 184.435 295.607C175.891 295.607 168.964 302.529 168.964 311.066C168.964 319.604 175.891 326.525 184.435 326.525Z" fill="#00A6ED" stroke="black" stroke-width="5.28171" stroke-miterlimit="10" stroke-linecap="round" stroke-linejoin="round"/>
<path d="M118.727 377.213C125.557 377.714 132.123 378.943 138.576 379.883C145.028 380.867 151.252 381.569 157.484 381.341C163.717 381.183 170.064 380.313 176.569 379.374C183.083 378.46 189.685 377.45 196.541 377.213C190.616 380.647 184.428 383.265 177.993 385.425C171.567 387.533 164.754 389.07 157.678 389.237C155.92 389.325 154.144 389.185 152.386 389.123C151.507 389.079 150.637 388.93 149.757 388.842C148.887 388.728 148.008 388.666 147.147 388.482C143.71 387.858 140.334 387.015 137.108 385.9C130.638 383.677 124.528 380.849 118.727 377.213Z" fill="black"/>
<path d="M171.941 419.972C191.773 423.363 232.201 418.04 249.018 405.787" stroke="black" stroke-width="5.28171" stroke-miterlimit="10"/>
<path d="M62.6396 404.674C72.1423 412.368 114.162 424.753 140.736 420.018" stroke="black" stroke-width="5.28171" stroke-miterlimit="10"/>
<path d="M48.0753 168.676L37.3332 168.676C27.7514 168.676 19.9805 160.912 19.9805 151.338L19.9805 112.577C19.9805 103.003 27.7514 95.2383 37.3332 95.2383L48.0753 95.2383C57.6571 95.2383 65.428 103.003 65.428 112.577L65.428 151.338C65.428 160.912 57.6571 168.676 48.0753 168.676Z" fill="white" stroke="black" stroke-width="7.04228" stroke-miterlimit="10"/>
<path d="M281.738 162.528L270.996 162.528C261.414 162.528 253.644 154.763 253.644 145.189L253.644 106.428C253.644 96.8544 261.414 89.0898 270.996 89.0898L281.738 89.0898C291.32 89.0898 299.091 96.8544 299.091 106.428L299.091 145.189C299.091 154.763 291.32 162.528 281.738 162.528Z" fill="white" stroke="black" stroke-width="7.04228" stroke-miterlimit="10"/>
<path d="M160.272 251.815C228.761 251.815 284.282 196.34 284.282 127.908C284.282 59.4753 228.761 4.00002 160.272 4.00001C91.7836 4 36.2627 59.4753 36.2627 127.908C36.2627 196.34 91.7836 251.815 160.272 251.815Z" fill="white" stroke="black" stroke-width="7.04228" stroke-miterlimit="10" stroke-linecap="round" stroke-linejoin="round"/>
<path d="M284.865 136.279C284.865 65.2601 229.331 33.2871 160.828 33.2871C92.3245 33.2871 40.3249 64.0325 36.7903 136.279C34.003 193.079 92.3245 239.27 160.828 239.27C229.331 239.27 284.865 193.161 284.865 136.279Z" fill="black"/>
<path d="M48.2477 75.8973C54.2768 67.1423 61.5812 59.2163 69.7481 52.1678C71.8211 50.4492 73.8848 48.6869 76.0915 47.1337L79.3699 44.7253C80.4686 43.9224 81.63 43.2242 82.7556 42.4737C83.8989 41.7318 85.0246 40.9813 86.1858 40.2656L89.7503 38.2844C90.9473 37.6297 92.1265 36.9489 93.3326 36.3205L97.0138 34.5488C98.2469 33.9728 99.4616 33.3267 100.722 32.8119L104.511 31.2497C107.03 30.1674 109.641 29.3739 112.234 28.5103C114.817 27.5942 117.473 26.9495 120.112 26.2348C122.74 25.4674 125.434 24.9717 128.109 24.4146C138.855 22.3616 149.801 21.6854 160.659 21.7657C171.503 22.1271 182.32 23.2443 192.937 25.4003C198.242 26.5091 203.496 27.8204 208.692 29.3608C211.285 30.1311 213.87 30.9453 216.429 31.8389L220.234 33.2544L224.005 34.7669C229.004 36.8628 233.944 39.1088 238.668 41.7701C243.393 44.4226 247.988 47.3312 252.332 50.5852C256.633 53.8925 260.735 57.4655 264.341 61.5095C265.231 62.5361 266.139 63.5272 266.96 64.5985L268.217 66.183L269.396 67.83C270.95 70.0261 272.278 72.3653 273.526 74.7142L273.011 75.045C267.277 66.2287 259.293 59.0627 250.543 53.2844C241.765 47.4888 232.202 42.9406 222.342 39.3005C212.464 35.6781 202.253 32.9905 191.902 31.0863C181.551 29.1821 171.052 28.1404 160.535 27.9158C150.027 27.735 139.484 28.3189 129.122 30.1304C118.769 31.9155 108.604 34.8579 98.9451 38.9981C89.2773 43.1296 80.1328 48.4587 71.7202 54.7721C63.2988 61.0768 55.6267 68.3569 48.7182 76.3049L48.2477 75.8973Z" fill="black"/>
<path d="M259.292 123.629C261.748 111.658 256.392 100.449 247.327 98.5914C238.262 96.7339 228.922 104.932 226.465 116.902C224.008 128.872 229.365 140.082 238.43 141.939C247.494 143.797 256.835 135.599 259.292 123.629Z" fill="white"/>
<path d="M232.243 164.91C233.398 159.284 230.618 153.961 226.033 153.022C221.448 152.082 216.796 155.882 215.641 161.508C214.486 167.134 217.266 172.457 221.851 173.396C226.436 174.336 231.089 170.536 232.243 164.91Z" fill="white"/>
<path d="M67.1848 168.035C67.1848 168.035 48.2586 58.5936 160.216 58.2949C86.0408 94.4826 67.1848 168.035 67.1848 168.035Z" fill="white"/>
<defs>
<radialGradient id="paint0_radial" cx="0" cy="0" r="1" gradientUnits="userSpaceOnUse" gradientTransform="translate(151 466.239) rotate(90) scale(32.7585 151)">
<stop/>
<stop offset="1" stop-opacity="0"/>
</radialGradient>
<clipPath id="clip0">
<rect width="291.499" height="276.262" fill="white" transform="translate(10.501 203.34)"/>
</clipPath>
<clipPath id="clip1">
<rect width="144.765" height="276.082" fill="white" transform="translate(157.639 204.133)"/>
</clipPath>
<clipPath id="clip2">
<rect width="147.139" height="276.082" fill="white" transform="matrix(-1 -8.73509e-08 -8.74947e-08 1 157.639 203.34)"/>
</clipPath>
</defs>
</svg>
