<svg width="40" height="40" viewBox="0 0 40 40" fill="none" xmlns="http://www.w3.org/2000/svg">
<path d="M37.7453 2.51809C37.6796 2.50781 37.6133 2.5018 37.5468 2.50012H2.46872C1.79763 2.49074 1.26013 3.03762 1.25076 3.73059C1.24774 3.80397 1.25377 3.87744 1.26873 3.94934L6.37029 36.0782C6.4341 36.4672 6.62668 36.8235 6.91716 37.09C7.20453 37.3531 7.57985 37.4994 7.96951 37.5001H32.4367C32.7297 37.5006 33.0128 37.3945 33.2333 37.2015C33.4538 37.0086 33.5966 36.7421 33.6351 36.4517L36.6726 17.0837H25.4062L23.964 25.8337H16.0328L14.0226 14.2712H37.1148L38.7367 3.95871C38.8359 3.27512 38.3945 2.62746 37.7453 2.51809Z" fill="white"/>
</svg>
