<svg width="40" height="40" viewBox="0 0 40 40" fill="none" xmlns="http://www.w3.org/2000/svg">
<path d="M14.167 3.33398C12.8409 3.33398 11.5691 3.86077 10.6315 4.79845C9.69378 5.73613 9.16699 7.0079 9.16699 8.33398C9.16699 9.66007 9.69378 10.9318 10.6315 11.8695C11.5691 12.8072 12.8409 13.334 14.167 13.334H25.8337C27.1597 13.334 28.4315 12.8072 29.3692 11.8695C30.3069 10.9318 30.8337 9.66007 30.8337 8.33398C30.8337 7.0079 30.3069 5.73613 29.3692 4.79845C28.4315 3.86077 27.1597 3.33398 25.8337 3.33398H14.167Z" fill="white"/>
<path d="M25.834 15C24.5079 15 23.2361 15.5268 22.2984 16.4645C21.3608 17.4021 20.834 18.6739 20.834 20C20.834 21.3261 21.3608 22.5979 22.2984 23.5355C23.2361 24.4732 24.5079 25 25.834 25C27.1601 25 28.4318 24.4732 29.3695 23.5355C30.3072 22.5979 30.834 21.3261 30.834 20C30.834 18.6739 30.3072 17.4021 29.3695 16.4645C28.4318 15.5268 27.1601 15 25.834 15Z" fill="white"/>
<path d="M9.16699 20C9.16699 18.6739 9.69378 17.4021 10.6315 16.4645C11.5691 15.5268 12.8409 15 14.167 15H19.167V25H14.167C12.8409 25 11.5691 24.4732 10.6315 23.5355C9.69378 22.5979 9.16699 21.3261 9.16699 20Z" fill="white"/>
<path d="M14.167 26.668C13.1781 26.668 12.2114 26.9612 11.3891 27.5106C10.5669 28.06 9.92603 28.8409 9.5476 29.7546C9.16916 30.6682 9.07014 31.6735 9.26307 32.6434C9.45599 33.6133 9.9322 34.5042 10.6315 35.2035C11.3307 35.9028 12.2216 36.379 13.1915 36.5719C14.1614 36.7648 15.1668 36.6658 16.0804 36.2874C16.994 35.9089 17.7749 35.2681 18.3243 34.4458C18.8737 33.6236 19.167 32.6569 19.167 31.668V26.668H14.167Z" fill="white"/>
</svg>
