<svg width="40" height="40" viewBox="0 0 40 40" fill="none" xmlns="http://www.w3.org/2000/svg">
<g clip-path="url(#clip0)">
<path d="M7.93152 0.914216C7.84066 0.639792 7.66306 0.402333 7.4255 0.237618C7.18794 0.0729037 6.90329 -0.0101436 6.61443 0.000989658C6.32556 0.0121229 6.04814 0.116834 5.82397 0.299344C5.59979 0.481855 5.441 0.732279 5.37152 1.01288L0.0381911 22.3462C-0.0212886 22.5862 -0.0128868 22.8379 0.062458 23.0734C0.137803 23.3088 0.277123 23.5187 0.464858 23.6796L19.1315 39.6796C19.3732 39.8868 19.6811 40.0008 19.9995 40.0008C20.3179 40.0008 20.6258 39.8868 20.8675 39.6796L39.5342 23.6796C39.7219 23.5187 39.8612 23.3088 39.9366 23.0734C40.0119 22.8379 40.0203 22.5862 39.9609 22.3462L34.6275 1.01288C34.558 0.732279 34.3993 0.481855 34.1751 0.299344C33.9509 0.116834 33.6735 0.0121229 33.3846 0.000989658C33.0958 -0.0101436 32.8111 0.0729037 32.5735 0.237618C32.336 0.402333 32.1584 0.639792 32.0675 0.914216L27.0409 16.0022H12.9609L7.93152 0.914216Z" fill="white"/>
</g>
<defs>
<clipPath id="clip0">
<rect width="40" height="40" fill="white"/>
</clipPath>
</defs>
</svg>
