<svg width="40" height="40" viewBox="0 0 40 40" fill="none" xmlns="http://www.w3.org/2000/svg">
<path d="M19.2163 3.33398C19.2163 7.33398 22.4997 10.584 26.4663 10.584H29.433V13.4173C29.433 17.4173 32.6663 20.6507 36.6663 20.6673V4.73398C36.6663 4.36268 36.5188 4.00659 36.2563 3.74403C35.9937 3.48148 35.6376 3.33398 35.2663 3.33398H19.2163ZM11.283 11.334C11.2926 13.2494 12.0578 15.0836 13.4123 16.4381C14.7667 17.7925 16.6009 18.5577 18.5163 18.5673H21.5163V21.434C21.526 23.3494 22.2912 25.1836 23.6456 26.5381C25 27.8925 26.8342 28.6577 28.7497 28.6673V12.7173C28.7449 12.3519 28.5977 12.0028 28.3393 11.7444C28.0809 11.486 27.7317 11.3387 27.3663 11.334H11.283ZM3.33301 19.334C3.33301 23.334 6.58301 26.5673 10.583 26.5673H13.5497V29.434C13.5663 33.4173 16.7997 36.6673 20.783 36.6673V20.7173C20.783 20.346 20.6355 19.9899 20.373 19.7274C20.1104 19.4648 19.7543 19.3173 19.383 19.3173L3.33301 19.334Z" fill="white"/>
</svg>
