<svg width="40" height="40" viewBox="0 0 40 40" fill="none" xmlns="http://www.w3.org/2000/svg">
<path d="M11.2977 10.232C12.0673 9.16907 13.2238 8.45126 14.5179 8.23344C15.8119 8.01563 17.1397 8.31527 18.2148 9.06773C19.2899 9.82018 20.0261 10.9651 20.2646 12.2555C20.503 13.546 20.2246 14.8784 19.4894 15.9654L9.92941 29.6187C9.16424 30.6933 8.00541 31.4219 6.7054 31.6459C5.40538 31.8699 4.06953 31.571 2.98887 30.8145C1.90822 30.0579 1.17034 28.9049 0.935995 27.6067C0.701648 26.3085 0.989825 24.9703 1.73774 23.8837L11.2977 10.2304V10.232Z" fill="white"/>
<path d="M25.4452 10.3781C26.2059 9.29182 27.367 8.55223 28.6731 8.32202C29.9791 8.09182 31.3231 8.38987 32.4094 9.1506C33.4957 9.91133 34.2352 11.0724 34.4654 12.3785C34.6956 13.6845 34.3976 15.0285 33.6369 16.1148L24.0769 29.7664C23.3117 30.841 22.1529 31.5697 20.8529 31.7936C19.5528 32.0176 18.217 31.7188 17.1363 30.9622C16.0557 30.2056 15.3178 29.0527 15.0835 27.7545C14.8491 26.4563 15.1373 25.1181 15.8852 24.0314L25.4452 10.3781Z" fill="white"/>
<path d="M34.166 31.4316C35.4921 31.4316 36.7639 30.9049 37.7015 29.9672C38.6392 29.0295 39.166 27.7577 39.166 26.4316C39.166 25.1056 38.6392 23.8338 37.7015 22.8961C36.7639 21.9584 35.4921 21.4316 34.166 21.4316C32.8399 21.4316 31.5682 21.9584 30.6305 22.8961C29.6928 23.8338 29.166 25.1056 29.166 26.4316C29.166 27.7577 29.6928 29.0295 30.6305 29.9672C31.5682 30.9049 32.8399 31.4316 34.166 31.4316Z" fill="white"/>
</svg>
