<svg width="40" height="40" viewBox="0 0 40 40" fill="none" xmlns="http://www.w3.org/2000/svg">
<path d="M2.14812 12.6713L0.703125 14.6163H7.77312L8.31187 4.405L2.14812 12.6713ZM30.9606 3.57L20.9131 2.5L31.5144 14L30.9606 3.57ZM8.76437 17.055L7.88937 15.3363H0.771875L18.3419 35.7812L8.76437 17.055ZM8.92062 14.6175H31.1081L20.0219 2.57875L8.92062 14.6175ZM32.1481 15.3275L21.6869 35.7812L39.2494 15.3363H32.1481V15.3275ZM32.4519 5.39125L31.7181 4.40625L31.7881 5.7575L32.2644 14.6175H39.3194L32.4519 5.39125ZM8.86687 7.305L8.50688 13.9925L19.1169 2.5L9.07062 3.57L8.86687 7.305ZM31.3431 15.3275H8.68687L20.0231 37.5L31.3431 15.3275Z" fill="white"/>
</svg>
