<svg width="40" height="40" viewBox="0 0 40 40" fill="none" xmlns="http://www.w3.org/2000/svg">
<path d="M10.3232 24.4063C10.3232 26.3396 8.75152 27.918 6.81819 27.918C5.88811 27.9153 4.99696 27.5443 4.33976 26.8862C3.68256 26.2281 3.31284 25.3364 3.31152 24.4063C3.31328 23.4765 3.68319 22.5853 4.34034 21.9275C4.9975 21.2697 5.8884 20.8989 6.81819 20.8963H10.3232V24.4063ZM12.0915 24.4063C12.0915 22.473 13.6649 20.8963 15.5982 20.8963C16.5277 20.8994 17.4182 21.2703 18.075 21.9281C18.7318 22.5858 19.1014 23.4768 19.1032 24.4063V33.1963C19.1014 34.1258 18.7318 35.0168 18.075 35.6745C17.4182 36.3323 16.5277 36.7032 15.5982 36.7063C14.6681 36.7045 13.7767 36.3341 13.1194 35.6761C12.462 35.0181 12.0924 34.1264 12.0915 33.1963V24.4063ZM15.5982 10.3146C13.6649 10.3146 12.0915 8.73464 12.0915 6.80297C12.0915 4.8713 13.6649 3.29297 15.5982 3.29297C16.5277 3.29605 17.4182 3.667 18.075 4.32473C18.7318 4.98246 19.1014 5.87346 19.1032 6.80297V10.3146H15.5982ZM15.5982 12.0813C16.528 12.0844 17.4187 12.4556 18.0755 13.1137C18.7324 13.7717 19.1019 14.6632 19.1032 15.593C19.1014 16.5225 18.7318 17.4135 18.075 18.0712C17.4182 18.7289 16.5277 19.0999 15.5982 19.103H6.81986C5.89007 19.1003 4.99916 18.7296 4.34201 18.0718C3.68486 17.414 3.31495 16.5228 3.31319 15.593C3.31451 14.6629 3.68422 13.7712 4.34142 13.1131C4.99862 12.4549 5.88978 12.0839 6.81986 12.0813H15.5982ZM29.6765 15.593C29.6765 13.6596 31.2482 12.0813 33.1815 12.0813C34.1116 12.0839 35.0028 12.4549 35.66 13.1131C36.3172 13.7712 36.6869 14.6629 36.6882 15.593C36.6864 16.5228 36.3165 17.414 35.6594 18.0718C35.0022 18.7296 34.1113 19.1003 33.1815 19.103H29.6765V15.593ZM27.9082 15.593C27.9082 17.5263 26.3349 19.103 24.4015 19.103C23.472 19.0999 22.5815 18.7289 21.9248 18.0712C21.268 17.4135 20.8983 16.5225 20.8965 15.593V6.80297C20.8983 5.87346 21.268 4.98246 21.9248 4.32473C22.5815 3.667 23.472 3.29605 24.4015 3.29297C26.3349 3.29297 27.9082 4.86964 27.9082 6.80297V15.593ZM24.4015 29.6846C26.3349 29.6846 27.9082 31.2646 27.9082 33.1963C27.9082 35.128 26.3349 36.7063 24.4015 36.7063C23.472 36.7032 22.5815 36.3323 21.9248 35.6745C21.268 35.0168 20.8983 34.1258 20.8965 33.1963V29.6846H24.4015ZM24.4015 27.918C23.4717 27.9149 22.581 27.5437 21.9242 26.8856C21.2673 26.2275 20.8978 25.3361 20.8965 24.4063C20.8983 23.4768 21.268 22.5858 21.9248 21.9281C22.5815 21.2703 23.472 20.8994 24.4015 20.8963H33.1815C34.1113 20.8989 35.0022 21.2697 35.6594 21.9275C36.3165 22.5853 36.6864 23.4765 36.6882 24.4063C36.6869 25.3364 36.3172 26.2281 35.66 26.8862C35.0028 27.5443 34.1116 27.9153 33.1815 27.918H24.4015Z" fill="white"/>
</svg>
