<svg width="40" height="40" viewBox="0 0 40 40" fill="none" xmlns="http://www.w3.org/2000/svg">
<path d="M33.6797 3H6.32031C4.48655 3 3 4.48655 3 6.32031V33.6797C3 35.5134 4.48655 37 6.32031 37H33.6797C35.5134 37 37 35.5134 37 33.6797V6.32031C37 4.48655 35.5134 3 33.6797 3Z" fill="white"/>
<path d="M30.9862 7.41797H23.8037C22.9235 7.41797 22.21 8.13151 22.21 9.01172V20.6992C22.21 21.5794 22.9235 22.293 23.8037 22.293H30.9862C31.8664 22.293 32.58 21.5794 32.58 20.6992V9.01172C32.58 8.13151 31.8664 7.41797 30.9862 7.41797Z" fill="#00A6ED"/>
<path d="M16.1942 7.41797H9.01172C8.13151 7.41797 7.41797 8.13151 7.41797 9.01172V29.1992C7.41797 30.0794 8.13151 30.793 9.01172 30.793H16.1942C17.0744 30.793 17.788 30.0794 17.788 29.1992V9.01172C17.788 8.13151 17.0744 7.41797 16.1942 7.41797Z" fill="#00A6ED"/>
</svg>
