<svg width="16" height="25" viewBox="0 0 16 25" fill="none" xmlns="http://www.w3.org/2000/svg">
<path d="M2.91131 10.1523L0.0521221 5.6602L2.58272 5.71375L5.77051 5.6602L2.91131 10.1523Z" fill="black"/>
<path fill-rule="evenodd" clip-rule="evenodd" d="M13.6263 8.67134C13.6437 11.85 11.2401 14.2316 8.5113 14.2482C6.49818 14.2605 4.64796 12.9835 3.80889 11.0366L1.34722 11.0516C2.3004 14.2687 5.15884 16.5952 8.52405 16.5747C12.6506 16.5496 15.9766 13.0048 15.9528 8.65719C15.9289 4.30955 12.5644 0.805446 8.43776 0.830551C4.75805 0.852937 1.71496 3.67397 1.11591 7.36731L3.48626 7.35289C4.05199 4.88949 6.13407 3.17114 8.45051 3.15705C11.1793 3.14045 13.6089 5.49272 13.6263 8.67134Z" fill="black"/>
<rect x="1.33789" y="11.0352" width="2.28735" height="13.1816" fill="black"/>
</svg>
