<svg width="18" height="28" viewBox="0 0 18 28" fill="none" xmlns="http://www.w3.org/2000/svg">
<path d="M6.38674 6.26688L3.26821 11.2337L0.149936 6.2673L2.89818 6.32625L2.89818 6.32629L2.90011 6.32626L6.38674 6.26688Z" fill="black" stroke="black" stroke-width="0.100391"/>
<path fill-rule="evenodd" clip-rule="evenodd" d="M15.2992 9.647C15.319 13.3174 12.5876 16.0118 9.55621 16.0305C7.30967 16.0444 5.21204 14.5868 4.26835 12.3372L1.51159 12.3542C2.58121 16.0169 5.79117 18.666 9.57033 18.6427C14.2037 18.6142 17.9381 14.5794 17.9113 9.6309C17.8846 4.68237 14.1068 0.693947 9.47348 0.722511C5.34258 0.747978 1.92623 3.95786 1.25281 8.16064L3.9118 8.14424C4.54761 5.30247 6.90905 3.3506 9.4876 3.33471C12.519 3.31602 15.2793 5.97656 15.2992 9.647Z" fill="black"/>
<rect x="1.50195" y="12.3281" width="2.56824" height="15.0034" fill="black"/>
</svg>
