<svg width="12" height="16" viewBox="0 0 12 16" fill="none" xmlns="http://www.w3.org/2000/svg">
<path d="M3.91192 3.36233L2.00243 6.34146L0.0931025 3.36258L1.7758 3.39794L1.7758 3.39796L1.77696 3.39794L3.91192 3.36233Z" fill="white" stroke="white" stroke-width="0.06149"/>
<path fill-rule="evenodd" clip-rule="evenodd" d="M9.37113 5.38662C9.38302 7.541 7.74034 9.17269 5.85339 9.18409C4.4642 9.19248 3.1977 8.32112 2.62145 7.00117L0.92635 7.01141C1.58164 9.20882 3.54764 10.798 5.86222 10.7841C8.70017 10.7669 10.9875 8.34607 10.9711 5.37696C10.9547 2.40784 8.64082 0.0147888 5.80288 0.0319334C3.27253 0.0472197 1.17991 1.97339 0.767629 4.49529L2.39866 4.48544C2.78803 2.81564 4.2121 1.64157 5.81171 1.63191C7.69866 1.62051 9.35924 3.23225 9.37113 5.38662Z" fill="white"/>
<rect x="1.10332" y="7.17949" width="1.20626" height="8.63526" fill="white" stroke="white" stroke-width="0.366795"/>
</svg>
