<svg width="12" height="16" viewBox="0 0 12 16" fill="none" xmlns="http://www.w3.org/2000/svg">
<path d="M3.91192 3.35842L2.00243 6.33756L0.0931025 3.35867L1.7758 3.39403L1.7758 3.39406L1.77696 3.39404L3.91192 3.35842Z" fill="white" stroke="white" stroke-width="0.06149"/>
<path fill-rule="evenodd" clip-rule="evenodd" d="M9.37113 5.38467C9.38302 7.53904 7.74034 9.17074 5.85339 9.18214C4.4642 9.19053 3.1977 8.31917 2.62145 6.99921L0.92635 7.00946C1.58164 9.20687 3.54764 10.7961 5.86222 10.7821C8.70017 10.765 10.9875 8.34412 10.9711 5.375C10.9547 2.40588 8.64082 0.0128357 5.80288 0.0299802C3.27253 0.0452665 1.17991 1.97144 0.767629 4.49334L2.39866 4.48348C2.78803 2.81369 4.2121 1.63962 5.81171 1.62996C7.69866 1.61856 9.35924 3.23029 9.37113 5.38467Z" fill="white"/>
<rect x="1.10332" y="7.18144" width="1.20626" height="8.63526" fill="white" stroke="white" stroke-width="0.366795"/>
</svg>
