<svg width="13" height="19" viewBox="0 0 13 19" fill="none" xmlns="http://www.w3.org/2000/svg">
<path d="M2.27746 8.01953L0.0402627 4.51347L2.02034 4.55526L4.51465 4.51347L2.27746 8.01953Z" fill="white"/>
<path fill-rule="evenodd" clip-rule="evenodd" d="M10.6562 6.85841C10.6698 9.33256 8.79339 11.1935 6.654 11.2064C5.07798 11.2159 3.63359 10.2209 2.9767 8.70715L1.04926 8.71885C1.79601 11.2282 4.03194 13.0427 6.66405 13.0268C9.89293 13.0073 12.4953 10.2407 12.4765 6.84741C12.4578 3.45413 9.82511 0.71915 6.59623 0.738656C3.71604 0.756056 1.33437 2.95926 0.866848 5.8433L2.72169 5.83204C3.16336 3.91284 4.79006 2.57001 6.60627 2.55904C8.74567 2.54611 10.6425 4.38426 10.6562 6.85841Z" fill="white"/>
<rect x="1.04004" y="8.71094" width="1.78975" height="10.2881" fill="white"/>
</svg>
