<svg width="18" height="28" viewBox="0 0 18 28" fill="none" xmlns="http://www.w3.org/2000/svg">
<path d="M6.38674 6.26688L3.26821 11.2337L0.149936 6.2673L2.89818 6.32625L2.89818 6.32629L2.90011 6.32626L6.38674 6.26688Z" fill="white" stroke="white" stroke-width="0.100391"/>
<path fill-rule="evenodd" clip-rule="evenodd" d="M15.2982 9.647C15.318 13.3174 12.5867 16.0118 9.55524 16.0305C7.30872 16.0444 5.2111 14.5868 4.2674 12.3372L1.51063 12.3542C2.58027 16.017 5.79021 18.666 9.56936 18.6427C14.2027 18.6142 17.9371 14.5794 17.9104 9.6309C17.8836 4.68237 14.1059 0.693946 9.47251 0.722511C5.34159 0.747978 1.92523 3.95788 1.25184 8.16069L3.91082 8.14429C4.54661 5.30249 6.90806 3.3506 9.48663 3.3347C12.5181 3.31602 15.2783 5.97656 15.2982 9.647Z" fill="white"/>
<rect x="1.50293" y="12.3281" width="2.56824" height="15.0034" fill="white"/>
</svg>
