<svg width="13" height="19" viewBox="0 0 13 19" fill="none" xmlns="http://www.w3.org/2000/svg">
<path d="M4.46635 4.48804L2.28584 7.89002L0.10551 4.48833L2.02704 4.5287L2.02704 4.52873L2.02836 4.52871L4.46635 4.48804Z" fill="black" stroke="black" stroke-width="0.0702176"/>
<path fill-rule="evenodd" clip-rule="evenodd" d="M10.7002 6.80051C10.7138 9.26066 8.83792 11.124 6.68315 11.137C5.09668 11.1466 3.65032 10.1514 2.99234 8.64389L1.05669 8.65559C1.8049 11.1651 4.05002 12.98 6.69324 12.964C9.93398 12.9445 12.546 10.18 12.5272 6.78947C12.5085 3.39893 9.86622 0.66622 6.62547 0.685798C3.73608 0.703254 1.34652 2.90265 0.875592 5.78235L2.73814 5.77109C3.18289 3.86446 4.80901 2.5239 6.63556 2.51287C8.79033 2.49985 10.6866 4.34035 10.7002 6.80051Z" fill="black"/>
<rect x="1.26021" y="8.85201" width="1.37747" height="9.86091" fill="black" stroke="black" stroke-width="0.418857"/>
</svg>
