<svg width="30" height="30" viewBox="0 0 30 30" fill="none" xmlns="http://www.w3.org/2000/svg">
<g clip-path="url(#clip0)">
<path d="M29.5 14.75C29.5 6.60293 22.8971 0 14.75 0C6.60293 0 0 6.60293 0 14.75C0 22.1135 5.39297 28.2151 12.4453 29.3214V19.0137H8.7002V14.75H12.4453V11.5004C12.4453 7.80425 14.6463 5.76172 18.0169 5.76172C19.6302 5.76172 21.3184 6.0498 21.3184 6.0498V9.67969H19.4573C17.6251 9.67969 17.0547 10.8176 17.0547 11.9844V14.75H21.1455L20.4916 19.0137H17.0547V29.3214C24.107 28.2151 29.5 22.1135 29.5 14.75Z" fill="black"/>
</g>
<defs>
<clipPath id="clip0">
<rect width="29.5" height="29.5" fill="white"/>
</clipPath>
</defs>
</svg>
