<svg width="30" height="30" viewBox="0 0 30 30" fill="none" xmlns="http://www.w3.org/2000/svg">
<path d="M15.2754 0.113281C7.14538 0.113281 0.552734 6.8171 0.552734 15.0873C0.552734 21.7034 4.77123 27.3164 10.621 29.2964C11.3568 29.435 11.6269 28.9715 11.6269 28.576C11.6269 28.219 11.6133 27.0394 11.6069 25.7881C7.51108 26.694 6.6468 24.0214 6.6468 24.0214C5.97708 22.2905 5.01211 21.8303 5.01211 21.8303C3.67632 20.9009 5.1128 20.92 5.1128 20.92C6.59121 21.0254 7.36967 22.4631 7.36967 22.4631C8.68279 24.7524 10.8139 24.0905 11.654 23.7079C11.7861 22.7404 12.1677 22.0793 12.5887 21.7056C9.31862 21.3269 5.88102 20.043 5.88102 14.3052C5.88102 12.6704 6.45615 11.3346 7.39795 10.2859C7.24509 9.90851 6.74115 8.38574 7.54058 6.32314C7.54058 6.32314 8.7769 5.92069 11.5904 7.85807C12.7648 7.52629 14.0242 7.3599 15.2754 7.35419C16.5266 7.3599 17.7871 7.52629 18.9637 7.85807C21.7737 5.92069 23.0083 6.32314 23.0083 6.32314C23.8097 8.38574 23.3055 9.90851 23.1527 10.2859C24.0967 11.3346 24.6679 12.6704 24.6679 14.3052C24.6679 20.0566 21.2237 21.323 17.9453 21.6937C18.4734 22.1584 18.9439 23.0697 18.9439 24.4667C18.9439 26.47 18.9268 28.0826 18.9268 28.576C18.9268 28.9745 19.1919 29.4415 19.9381 29.2944C25.7847 27.3121 29.9979 21.7011 29.9979 15.0873C29.9979 6.8171 23.4062 0.113281 15.2754 0.113281Z" fill="black"/>
</svg>
