<svg width="30" height="30" viewBox="0 0 30 30" fill="none" xmlns="http://www.w3.org/2000/svg">
<path d="M0.166016 14.75C0.166016 6.6038 6.76982 0 14.916 0C23.0622 0 29.666 6.6038 29.666 14.75C29.666 22.8962 23.0622 29.5 14.916 29.5C6.76982 29.5 0.166016 22.8962 0.166016 14.75Z" fill="black"/>
<mask id="mask0" mask-type="alpha" maskUnits="userSpaceOnUse" x="5" y="5" width="20" height="19">
<path d="M18.7712 22.5896C19.8194 22.5896 20.8089 22.1884 21.5572 21.46C22.3056 20.7316 22.7177 19.7686 22.7177 18.7483V10.752C22.7177 9.73176 22.3056 8.76874 21.5572 8.04034C20.8089 7.31193 19.8194 6.9108 18.7712 6.9108H11.0612C10.013 6.9108 9.02353 7.31193 8.27515 8.04034C7.52678 8.76874 7.11464 9.73176 7.11464 10.752V18.7483C7.11464 19.7686 7.52678 20.7316 8.27515 21.46C9.02353 22.1884 10.013 22.5896 11.0612 22.5896H18.7712ZM18.7712 23.9691H11.0612C8.11103 23.9691 5.69727 21.6198 5.69727 18.7483V10.752C5.69727 7.88059 8.11103 5.53125 11.0612 5.53125H18.7712C21.7214 5.53125 24.1351 7.88059 24.1351 10.752V18.7483C24.1351 21.6198 21.7214 23.9691 18.7712 23.9691Z" fill="#FEFCFC"/>
<path d="M14.9202 11.447C13.0841 11.447 11.5956 12.8958 11.5956 14.6829C11.5956 16.47 13.0841 17.9188 14.9202 17.9188C16.7564 17.9188 18.2448 16.47 18.2448 14.6829C18.2448 12.8958 16.7564 11.447 14.9202 11.447Z" fill="#FEFCFC"/>
<path fill-rule="evenodd" clip-rule="evenodd" d="M18.7712 22.5896C19.8194 22.5896 20.8089 22.1884 21.5572 21.46C22.3056 20.7316 22.7177 19.7686 22.7177 18.7483V10.752C22.7177 9.73176 22.3056 8.76874 21.5572 8.04034C20.8089 7.31193 19.8194 6.9108 18.7712 6.9108H11.0612C10.013 6.9108 9.02353 7.31193 8.27515 8.04034C7.52678 8.76874 7.11464 9.73176 7.11464 10.752V18.7483C7.11464 19.7686 7.52678 20.7316 8.27515 21.46C9.02353 22.1884 10.013 22.5896 11.0612 22.5896H18.7712ZM14.9447 19.6207C17.7487 19.6207 20.0219 17.4082 20.0219 14.679C20.0219 11.9498 17.7487 9.73729 14.9447 9.73729C12.1406 9.73729 9.86748 11.9498 9.86748 14.679C9.86748 17.4082 12.1406 19.6207 14.9447 19.6207ZM20.1034 10.8306C20.7674 10.8306 21.3056 10.3067 21.3056 9.66044C21.3056 9.01422 20.7674 8.49031 20.1034 8.49031C19.4394 8.49031 18.9012 9.01422 18.9012 9.66044C18.9012 10.3067 19.4394 10.8306 20.1034 10.8306Z" fill="#FEFCFC"/>
</mask>
<g mask="url(#mask0)">
<rect x="-5.73242" y="-3.83594" width="42.3325" height="37.17" fill="white"/>
</g>
</svg>
