<svg width="32" height="31" viewBox="0 0 32 31" fill="none" xmlns="http://www.w3.org/2000/svg">
<circle cx="15.9492" cy="15.082" r="15" fill="black"/>
<path d="M19.5906 15.1797C19.5906 13.2109 18.0156 11.6359 16.0469 11.6359C14.0781 11.6359 12.5031 13.2109 12.5031 15.1797C12.5031 17.1484 14.0781 18.7234 16.0469 18.7234C18.0156 18.7234 19.5906 17.1484 19.5906 15.1797ZM21.4281 15.1797C21.4281 18.1984 19.0656 20.5609 16.0469 20.5609C13.0281 20.5609 10.6656 18.1984 10.6656 15.1797C10.6656 12.1609 13.0281 9.79844 16.0469 9.79844C19.0656 9.79844 21.4281 12.1609 21.4281 15.1797ZM22.8719 9.53594C22.8719 10.3234 22.3469 10.8484 21.5594 10.8484C20.7719 10.8484 20.2469 10.3234 20.2469 9.53594C20.2469 8.74844 20.7719 8.22344 21.5594 8.22344C22.3469 8.22344 22.8719 8.87969 22.8719 9.53594ZM16.0469 6.51719C14.4719 6.51719 11.1906 6.38594 9.87813 6.91094C8.95938 7.30469 8.17188 8.09219 7.90937 9.01094C7.38437 10.3234 7.51562 13.6047 7.51562 15.1797C7.51562 16.7547 7.38437 20.0359 7.90937 21.3484C8.17188 22.2672 8.95938 23.0547 9.87813 23.3172C11.1906 23.8422 14.6031 23.7109 16.0469 23.7109C17.4906 23.7109 20.9031 23.8422 22.2156 23.3172C23.1344 22.9234 23.7906 22.2672 24.1844 21.3484C24.7094 19.9047 24.5781 16.6234 24.5781 15.1797C24.5781 13.7359 24.7094 10.3234 24.1844 9.01094C23.9219 8.09219 23.1344 7.30469 22.2156 7.04219C20.9031 6.38594 17.6219 6.51719 16.0469 6.51719ZM26.5469 15.1797V19.5109C26.5469 21.0859 26.0219 22.6609 24.8406 23.9734C23.6594 25.1547 22.0844 25.6797 20.3781 25.6797H11.7156C10.1406 25.6797 8.56562 25.1547 7.25312 23.9734C6.20312 22.7922 5.54688 21.2172 5.54688 19.5109V15.1797V10.8484C5.54688 9.14219 6.20312 7.56719 7.25312 6.38594C8.56562 5.33594 10.1406 4.67969 11.7156 4.67969H20.3781C21.9531 4.67969 23.5281 5.20469 24.8406 6.38594C25.8906 7.56719 26.5469 9.14219 26.5469 10.8484V15.1797Z" fill="white"/>
</svg>
