<svg width="31" height="32" viewBox="0 0 31 32" fill="none" xmlns="http://www.w3.org/2000/svg">
<circle cx="15.0869" cy="15.082" r="15" fill="black"/>
<g clip-path="url(#clip0)">
<path d="M24.1895 2.79492L15.5486 8.59548L16.275 7.11611C12.1712 5.5719 4.3564 9.69786 4.19577 16.2395C3.87681 29.2286 15.7398 28.0213 17.4221 27.5153C13.1704 25.8958 13.6624 20.9232 14.4398 18.6393C18.2249 19.9629 20.0219 21.0529 22.2013 18.9897C23.9448 17.339 19.971 13.0334 17.7661 11.0869L24.1895 2.79492Z" fill="white"/>
<path d="M14.4398 18.6393C18.2249 19.9629 20.022 21.0529 22.2013 18.9897C23.9448 17.339 19.971 13.0334 17.7661 11.0869L24.1895 2.79492L15.5486 8.59548L16.275 7.11611C12.1712 5.5719 4.3564 9.69786 4.19577 16.2395C3.87681 29.2286 15.7398 28.0213 17.4221 27.5153C13.1704 25.8958 13.6624 20.9232 14.4398 18.6393ZM14.4398 18.6393C10.6546 17.3157 9.8517 13.6174 10.8075 12.5663" stroke="black" stroke-width="0.763744"/>
<path fill-rule="evenodd" clip-rule="evenodd" d="M16.7665 13.7784C16.8086 13.6486 16.8313 13.51 16.8313 13.3661C16.8313 12.6278 16.2328 12.0293 15.4945 12.0293C14.8428 12.0293 14.3 12.4957 14.1816 13.1129C14.6457 13.0136 15.2293 13.0572 15.8176 13.2668C16.1813 13.3965 16.5034 13.5741 16.7665 13.7784Z" fill="black"/>
</g>
<defs>
<clipPath id="clip0">
<rect width="21.0659" height="26.8111" fill="white" transform="translate(4.18945 4.57617)"/>
</clipPath>
</defs>
</svg>
