<svg width="30" height="30" viewBox="0 0 30 30" fill="none" xmlns="http://www.w3.org/2000/svg">
<path d="M0.333984 14.75C0.333984 6.6038 6.93778 0 15.084 0C23.2302 0 29.834 6.6038 29.834 14.75C29.834 22.8962 23.2302 29.5 15.084 29.5C6.93778 29.5 0.333984 22.8962 0.333984 14.75Z" fill="black"/>
<mask id="mask0" mask-type="alpha" maskUnits="userSpaceOnUse" x="6" y="7" width="21" height="17">
<path fill-rule="evenodd" clip-rule="evenodd" d="M26.8844 9.30778C26.1723 9.61296 25.3585 9.81638 24.443 9.9181C25.2568 9.40948 25.9689 8.59568 26.274 7.68016C25.4602 8.18878 24.5447 8.49395 23.6292 8.6974C22.9171 7.88361 21.7982 7.375 20.5775 7.375C18.2378 7.375 16.4068 9.20603 16.4068 11.444C16.4068 11.7491 16.4068 12.0543 16.5085 12.3595C13.0499 12.1561 9.99817 10.5285 7.86196 8.08708C7.45507 8.69743 7.25162 9.40949 7.25162 10.1216C7.25162 11.5457 7.96368 12.7664 9.08265 13.5801C8.37058 13.5801 7.76023 13.3767 7.14989 13.0715C7.14989 13.0715 7.14989 13.0716 7.14989 13.1733C7.14989 15.2078 8.57403 16.8354 10.5068 17.2423C10.2016 17.344 9.79472 17.344 9.38782 17.344C9.08265 17.344 8.8792 17.344 8.57403 17.2423C9.08265 18.8698 10.6085 20.0905 12.4395 20.0905C11.0154 21.2095 9.18438 21.8198 7.25162 21.8198C6.94645 21.8198 6.53955 21.8198 6.23438 21.7181C8.06541 22.9388 10.3033 23.5492 12.643 23.5492C20.2723 23.5492 24.5447 17.2423 24.5447 11.8509C24.5447 11.6474 24.5447 11.444 24.5447 11.3423C25.6637 10.8336 26.3758 10.1216 26.8844 9.30778Z" fill="#FEFCFC"/>
</mask>
<g mask="url(#mask0)">
<rect x="-4.08984" y="-3.98047" width="42.3325" height="37.17" fill="white"/>
</g>
</svg>
