<svg width="264" height="264" viewBox="0 0 264 264" fill="none" xmlns="http://www.w3.org/2000/svg">
<g clip-path="url(#clip0)">
<g opacity="0.6">
<path opacity="0.6" d="M238.626 131.575C238.626 190.381 190.936 238.053 132.106 238.053C73.2768 238.053 25.5866 190.381 25.5866 131.575C25.5866 72.7694 73.2768 25.0973 132.106 25.0973C190.936 25.0973 238.626 72.7694 238.626 131.575Z" stroke="#00A6ED" stroke-width="1.52271"/>
<path opacity="0.6" d="M247.757 131.577C247.757 195.424 195.979 247.182 132.107 247.182C68.2347 247.182 16.4567 195.424 16.4567 131.577C16.4567 67.7306 68.2347 15.9723 132.107 15.9723C195.979 15.9723 247.757 67.7306 247.757 131.577Z" stroke="#00A6ED" stroke-width="1.52271"/>
<rect opacity="0.6" x="131" width="1" height="264" fill="#00A6ED"/>
<rect opacity="0.6" x="264" y="131" width="1.00001" height="264" transform="rotate(90 264 131)" fill="#00A6ED"/>
<path opacity="0.4" d="M132 132V0H0V132H132Z" fill="url(#paint0_linear)"/>
<path d="M83.2614 213.562H182.364V196.688H109.341V195.46L144.625 157.722C171.625 128.804 179.602 115.304 179.602 97.892C179.602 73.6534 159.966 54.3239 132.352 54.3239C104.815 54.3239 83.875 73.0398 83.875 100.653H101.977C101.977 82.7812 113.56 70.892 131.739 70.892C148.767 70.892 161.807 81.3239 161.807 97.892C161.807 112.389 153.293 123.128 135.114 142.994L83.2614 199.756V213.562Z" fill="#00A6ED"/>
</g>
</g>
<defs>
<linearGradient id="paint0_linear" x1="0.475847" y1="0.72103" x2="111.22" y2="111.182" gradientUnits="userSpaceOnUse">
<stop stop-color="#00A6ED"/>
<stop offset="1" stop-color="#00A6ED" stop-opacity="0"/>
</linearGradient>
<clipPath id="clip0">
<rect width="264" height="264" fill="white"/>
</clipPath>
</defs>
</svg>
