<svg width="264" height="264" viewBox="0 0 264 264" fill="none" xmlns="http://www.w3.org/2000/svg">
<g clip-path="url(#clip0)">
<g opacity="0.6">
<path opacity="0.6" d="M238.626 131.575C238.626 190.381 190.936 238.053 132.106 238.053C73.2768 238.053 25.5866 190.381 25.5866 131.575C25.5866 72.7694 73.2768 25.0973 132.106 25.0973C190.936 25.0973 238.626 72.7694 238.626 131.575Z" stroke="#00A6ED" stroke-width="1.52271"/>
<path opacity="0.6" d="M247.757 131.577C247.757 195.424 195.979 247.182 132.107 247.182C68.2347 247.182 16.4567 195.424 16.4567 131.577C16.4567 67.7306 68.2347 15.9723 132.107 15.9723C195.979 15.9723 247.757 67.7306 247.757 131.577Z" stroke="#00A6ED" stroke-width="1.52271"/>
<rect opacity="0.6" x="131" width="1" height="264" fill="#00A6ED"/>
<rect opacity="0.6" x="264" y="131" width="1.00001" height="264" transform="rotate(90 264 131)" fill="#00A6ED"/>
<path opacity="0.4" d="M132 132V0H264V132H132Z" fill="url(#paint0_linear)"/>
<path d="M136.341 215.71C166.793 215.71 189.42 196.611 189.42 170.915C189.42 150.972 177.608 136.474 157.818 133.176V131.949C173.696 127.116 183.591 114.077 183.591 96.358C183.591 74.1136 166.026 54.3239 136.955 54.3239C109.801 54.3239 87.25 71.0454 86.3295 95.7443H104.739C105.429 80.0966 120.31 70.892 136.648 70.892C153.983 70.892 165.182 81.4006 165.182 97.2784C165.182 113.847 152.219 124.585 133.58 124.585H121V141.46H133.58C157.435 141.46 170.705 153.58 170.705 170.915C170.705 187.56 156.207 198.835 136.034 198.835C117.855 198.835 103.435 189.477 102.284 174.29H82.9545C84.1051 198.989 105.889 215.71 136.341 215.71Z" fill="#00A6ED"/>
</g>
</g>
<defs>
<linearGradient id="paint0_linear" x1="263.524" y1="0.72103" x2="152.78" y2="111.182" gradientUnits="userSpaceOnUse">
<stop stop-color="#00A6ED"/>
<stop offset="1" stop-color="#00A6ED" stop-opacity="0"/>
</linearGradient>
<clipPath id="clip0">
<rect width="264" height="264" fill="white"/>
</clipPath>
</defs>
</svg>
