<svg width="303" height="381" viewBox="0 0 303 381" fill="none" xmlns="http://www.w3.org/2000/svg">
<ellipse opacity="0.3" cx="147" cy="351" rx="138" ry="30" fill="url(#paint0_radial)"/>
<g clip-path="url(#clip0)">
<path d="M209.548 362.363C186.498 363.89 169.206 356.653 167.385 352.562C161.118 338.463 156.218 293.535 155.535 293.307C154.852 293.08 140.037 293.08 140.037 293.08C140.037 293.08 134.085 337.928 128.468 351.792C127.103 355.173 122.858 359.598 93.9839 362.136C72.447 364.03 59.6869 351.022 59.8141 338.892C59.9347 327.611 72.032 320.742 73.8596 320.287C76.1358 314.864 77.7158 299.681 78.5928 281.458C70.4855 279.844 64.3732 272.688 64.3732 264.105V264.058C53.9563 256.674 37.7283 241.169 38.2639 216.506C38.6723 197.52 51.8876 185.529 64.3732 178.42V175.394C64.3732 165.626 72.2931 157.706 82.0606 157.706H211.797C218.559 157.706 224.444 161.502 227.416 167.086C246.971 157.88 280.023 141.934 280.023 141.934L284.093 185.737C284.093 185.737 250.024 206.055 229.491 216.968V264.105C229.491 272.768 223.265 279.972 215.051 281.498C216.022 294.787 217.822 308.183 220.855 320.816C249.87 333.121 233.06 360.81 209.548 362.363Z" fill="white" stroke="black" stroke-width="4.01682" stroke-miterlimit="10"/>
<path d="M61.6687 128.197H53.4878C46.1906 128.197 40.2725 122.279 40.2725 114.982V85.438C40.2725 78.1408 46.1906 72.2227 53.4878 72.2227H61.6687C68.9659 72.2227 74.8841 78.1408 74.8841 85.438V114.982C74.8841 122.279 68.9659 128.197 61.6687 128.197Z" fill="white" stroke="black" stroke-width="5.35576" stroke-miterlimit="10"/>
<path d="M239.62 123.51H231.439C224.142 123.51 218.224 117.591 218.224 110.294V80.7505C218.224 73.4533 224.142 67.5352 231.439 67.5352H239.62C246.917 67.5352 252.835 73.4533 252.835 80.7505V110.294C252.835 117.591 246.917 123.51 239.62 123.51Z" fill="white" stroke="black" stroke-width="5.35576" stroke-miterlimit="10"/>
<path d="M147.113 191.564C199.272 191.564 241.555 149.281 241.555 97.1218C241.555 44.9629 199.272 2.67969 147.113 2.67969C94.9541 2.67969 52.6709 44.9629 52.6709 97.1218C52.6709 149.281 94.9541 191.564 147.113 191.564Z" fill="white" stroke="black" stroke-width="5.35576" stroke-miterlimit="10" stroke-linecap="round" stroke-linejoin="round"/>
<path d="M242 103.5C242 49.3698 199.707 25 147.537 25C95.3664 25 55.765 48.4341 53.0731 103.5C50.9504 146.793 95.3664 182 147.537 182C199.707 182 242 146.856 242 103.5Z" fill="black"/>
<path d="M61.7984 57.4789C66.39 50.8059 71.9528 44.7647 78.1725 39.3924C79.7512 38.0825 81.3229 36.7392 83.0034 35.5554L85.5002 33.7197C86.3369 33.1077 87.2214 32.5756 88.0786 32.0036C88.9494 31.4381 89.8066 30.8661 90.6909 30.3205L93.4056 28.8104C94.3172 28.3115 95.2152 27.7925 96.1338 27.3136L98.9373 25.9632C99.8763 25.5241 100.801 25.0317 101.761 24.6393L104.647 23.4486C106.566 22.6237 108.554 22.0189 110.528 21.3607C112.496 20.6624 114.519 20.171 116.528 19.6262C118.53 19.0414 120.581 18.6635 122.618 18.2389C130.802 16.6741 139.139 16.1587 147.408 16.2199C155.666 16.4954 163.904 17.3469 171.99 18.9902C176.03 19.8353 180.031 20.8348 183.988 22.0089C185.963 22.596 187.931 23.2166 189.881 23.8977L192.778 24.9766L195.65 26.1294C199.458 27.7269 203.219 29.4388 206.817 31.4672C210.415 33.4889 213.915 35.7059 217.223 38.1861C220.499 40.7069 223.622 43.4302 226.369 46.5126C227.047 47.295 227.738 48.0505 228.363 48.867L229.321 50.0748L230.219 51.33C231.403 53.0039 232.413 54.7869 233.364 56.5772L232.972 56.8293C228.605 50.1096 222.525 44.6477 215.861 40.2434C209.176 35.8261 201.893 32.3594 194.383 29.5849C186.861 26.8239 179.085 24.7755 171.202 23.3241C163.319 21.8727 155.322 21.0787 147.313 20.9075C139.311 20.7697 131.282 21.2147 123.39 22.5955C115.505 23.9561 107.764 26.1988 100.408 29.3545C93.0453 32.5035 86.0811 36.5653 79.6744 41.3773C73.2608 46.1828 67.418 51.7317 62.1567 57.7896L61.7984 57.4789Z" fill="black"/>
<path d="M222.523 93.861C224.394 84.7373 220.315 76.1933 213.411 74.7776C206.508 73.3618 199.395 79.6103 197.524 88.734C195.653 97.8577 199.732 106.402 206.636 107.817C213.539 109.233 220.652 102.985 222.523 93.861Z" fill="white"/>
<path d="M201.924 125.324C202.803 121.036 200.686 116.979 197.194 116.263C193.703 115.547 190.159 118.443 189.28 122.731C188.4 127.02 190.518 131.077 194.01 131.793C197.501 132.509 201.045 129.613 201.924 125.324Z" fill="white"/>
<path d="M76.2229 127.71C76.2229 127.71 61.8092 44.294 147.073 44.0664C90.5831 71.6486 76.2229 127.71 76.2229 127.71Z" fill="white"/>
<path d="M290.407 132.352C290.407 137.541 287.294 150.268 283.458 150.268C279.622 150.268 276.509 137.541 276.509 132.352C276.509 127.164 279.622 122.953 283.458 122.953C287.301 122.953 290.407 127.157 290.407 132.352Z" fill="white" stroke="black" stroke-width="4.01682" stroke-miterlimit="10"/>
<path d="M229.491 216.969C222.415 220.731 216.952 223.369 215.044 223.677" stroke="black" stroke-width="4.01682" stroke-miterlimit="10"/>
<path d="M207.74 169.523C207.74 169.523 211.027 173.941 213.424 173.433C214.1 173.292 219.71 170.708 227.416 167.086" stroke="black" stroke-width="4.01682" stroke-miterlimit="10"/>
<path d="M117.931 287.141C123.132 287.522 128.133 288.459 133.047 289.176C137.961 289.926 142.701 290.461 147.448 290.287C152.194 290.167 157.028 289.504 161.982 288.788C166.943 288.091 171.97 287.321 177.192 287.141C172.68 289.758 167.967 291.753 163.066 293.4C158.173 295.007 152.984 296.178 147.595 296.306C146.256 296.373 144.904 296.266 143.565 296.219C142.895 296.185 142.232 296.071 141.563 296.004C140.9 295.917 140.231 295.871 139.575 295.73C136.957 295.255 134.386 294.612 131.929 293.762C127.002 292.068 122.349 289.912 117.931 287.141Z" fill="black"/>
<path d="M159.692 319.73C174.796 322.314 205.585 318.257 218.392 308.918" stroke="black" stroke-width="4.01682" stroke-miterlimit="10"/>
<path d="M76.4502 308.07C83.6872 313.935 115.688 323.374 135.926 319.766" stroke="black" stroke-width="4.01682" stroke-miterlimit="10"/>
<path d="M78.057 223.055C76.7114 221.984 75.4394 220.899 74.1741 219.781C72.9088 218.663 71.6837 217.505 70.492 216.313C69.3003 215.122 68.1556 213.883 67.0911 212.571C66.04 211.259 65.0224 209.886 64.373 208.34C65.2233 209.779 66.3948 210.978 67.5798 212.116C68.7782 213.247 70.0568 214.305 71.369 215.302C72.6812 216.307 74.0268 217.271 75.3992 218.188C76.7649 219.105 78.1708 220.009 79.5633 220.839L78.057 223.055Z" fill="black"/>
<path d="M72.8753 269.207C72.8753 269.207 69.2669 267.526 64.373 264.059" stroke="black" stroke-width="4.01682" stroke-miterlimit="10"/>
<path d="M86.4723 169.523C86.4723 169.523 75.7206 171.96 64.373 178.421" stroke="black" stroke-width="4.01682" stroke-miterlimit="10"/>
<path d="M300.582 165.841C300.616 151.869 292.609 138.955 284.984 138.941C277.359 138.921 274.915 147.678 274.888 161.65C274.855 175.622 276.388 188.181 284.013 188.194C291.638 188.214 300.549 179.813 300.582 165.841Z" fill="white" stroke="black" stroke-width="4.01682" stroke-miterlimit="10" stroke-linecap="round" stroke-linejoin="round"/>
<path d="M76.5512 282.134C77.3143 275.211 77.9771 268.242 78.5529 261.286C79.1286 254.324 79.6173 247.355 79.9654 240.372C80.3069 233.396 80.5345 226.407 80.4274 219.424C80.3671 215.936 80.2265 212.442 79.8784 208.974C79.6977 207.24 79.4633 205.506 79.1085 203.799C78.9278 202.949 78.7202 202.098 78.4457 201.275C78.1713 200.452 77.8499 199.628 77.3612 198.898C77.8834 199.608 78.2449 200.418 78.5596 201.228C78.8809 202.045 79.1286 202.888 79.3495 203.739C79.7914 205.439 80.106 207.173 80.3671 208.907C80.8826 212.382 81.1973 215.883 81.4249 219.384C81.8667 226.387 81.9739 233.41 81.9672 240.419C81.9538 247.435 81.7931 254.444 81.5521 261.454C81.3044 268.47 80.983 275.459 80.5412 282.488C80.4742 283.593 79.5169 284.437 78.4123 284.37C77.3077 284.303 76.4641 283.345 76.5311 282.241C76.5311 282.214 76.5378 282.181 76.5378 282.154L76.5512 282.134Z" fill="black"/>
<path d="M62.0164 241.972C60.5704 255.529 67.2249 268.885 74.81 269.695C82.3951 270.505 87.3157 262.652 88.755 249.095C90.2011 235.539 88.34 222.812 80.7549 222.002C73.1765 221.199 63.4558 228.422 62.0164 241.972Z" fill="white" stroke="black" stroke-width="4.01682" stroke-miterlimit="10" stroke-linecap="round" stroke-linejoin="round"/>
<path d="M212.942 281.539C212.922 274.617 212.956 267.721 213.029 260.812C213.103 253.91 213.223 247.001 213.404 240.099C213.598 233.197 213.839 226.294 214.254 219.392C214.469 215.944 214.71 212.497 215.064 209.062C215.245 207.342 215.439 205.628 215.727 203.921C216.015 202.22 216.29 200.493 216.993 198.906C216.383 200.526 216.209 202.254 216.022 203.961C215.834 205.668 215.741 207.388 215.654 209.109C215.493 212.55 215.446 215.991 215.433 219.432C215.413 226.321 215.56 233.21 215.754 240.099C216.169 253.87 216.825 267.647 217.629 281.392V281.398C217.702 282.69 216.718 283.802 215.426 283.875C214.134 283.949 213.023 282.965 212.949 281.673C212.942 281.626 212.942 281.579 212.942 281.539Z" fill="black"/>
<path d="M191.794 274.529H107.782C101.007 274.529 95.5107 269.033 95.5107 262.258V229.447C95.5107 222.672 101.007 217.176 107.782 217.176H191.794C198.569 217.176 204.065 222.672 204.065 229.447V262.258C204.065 269.033 198.569 274.529 191.794 274.529Z" fill="white" stroke="black" stroke-width="4.01682" stroke-miterlimit="10" stroke-linecap="round" stroke-linejoin="round"/>
<path d="M213.724 246.822H199.779C195.816 246.822 192.603 243.609 192.603 239.645C192.603 235.682 195.816 232.469 199.779 232.469H213.724C217.688 232.469 220.901 235.682 220.901 239.645C220.908 243.609 217.694 246.822 213.724 246.822Z" fill="white" stroke="black" stroke-width="4.01682" stroke-miterlimit="10" stroke-linecap="round" stroke-linejoin="round"/>
<path d="M191.552 265.396H107.54C100.765 265.396 95.2686 259.9 95.2686 253.125V220.314C95.2686 213.539 100.765 208.043 107.54 208.043H191.552C198.327 208.043 203.823 213.539 203.823 220.314V253.125C203.823 259.907 198.327 265.396 191.552 265.396Z" fill="white" stroke="black" stroke-width="4.01682" stroke-miterlimit="10" stroke-linecap="round" stroke-linejoin="round"/>
<path d="M117.931 208.043V236.723H128.187V264.058" stroke="black" stroke-width="4.01682" stroke-miterlimit="10" stroke-linecap="round" stroke-linejoin="round"/>
<path d="M170.579 248.507C177.086 248.507 182.361 243.231 182.361 236.724C182.361 230.217 177.086 224.941 170.579 224.941C164.071 224.941 158.796 230.217 158.796 236.724C158.796 243.231 164.071 248.507 170.579 248.507Z" fill="#00A6ED" stroke="black" stroke-width="4.01682" stroke-miterlimit="10" stroke-linecap="round" stroke-linejoin="round"/>
</g>
<defs>
<radialGradient id="paint0_radial" cx="0" cy="0" r="1" gradientUnits="userSpaceOnUse" gradientTransform="translate(147 351) rotate(90) scale(30 138)">
<stop/>
<stop offset="1" stop-opacity="0"/>
</radialGradient>
<clipPath id="clip0">
<rect width="302.031" height="364.58" fill="white" transform="translate(0.55957)"/>
</clipPath>
</defs>
</svg>
